<svg width="160" height="48" viewBox="0 0 160 48" fill="none" xmlns="http://www.w3.org/2000/svg">
<path d="M158.939 41.8102C158.939 42.4069 158.822 42.9977 158.593 43.5489C158.365 44.1001 158.03 44.6009 157.607 45.0225C157.185 45.4442 156.684 45.7786 156.132 46.0065C155.581 46.2344 154.99 46.3514 154.393 46.3508H5.60806C4.40215 46.352 3.24512 45.8744 2.39141 45.0229C1.53771 44.1714 1.05724 43.0158 1.05566 41.8102V5.60113C1.05723 4.395 1.53752 3.23879 2.39105 2.38637C3.24459 1.53395 4.40161 1.055 5.60806 1.05469H154.392C154.989 1.05469 155.58 1.17229 156.132 1.40079C156.683 1.62928 157.185 1.96419 157.607 2.38638C158.029 2.80857 158.364 3.30978 158.592 3.86137C158.821 4.41296 158.938 5.00414 158.938 5.60113L158.939 41.8102Z" fill="white"/>
<path d="M154.393 47.4075H5.60779C4.12225 47.4072 2.6975 46.8177 1.64618 45.7684C0.594855 44.7192 0.00282657 43.2958 0 41.8107L0 5.60273C0.00219764 4.11685 0.593835 2.69252 1.64512 1.64217C2.69641 0.59183 4.12151 0.00125414 5.60779 0L154.391 0C155.877 0.00187992 157.302 0.592657 158.353 1.64286C159.404 2.69307 159.996 4.11705 159.999 5.60273V41.8107C160.002 44.8977 157.482 47.4075 154.393 47.4075Z" fill="#A6A6A6"/>
<path d="M158.939 41.8102C158.939 42.4069 158.822 42.9977 158.593 43.5489C158.365 44.1001 158.03 44.6009 157.607 45.0225C157.185 45.4442 156.684 45.7786 156.132 46.0065C155.581 46.2344 154.99 46.3514 154.393 46.3508H5.60806C4.40215 46.352 3.24512 45.8744 2.39141 45.0229C1.53771 44.1714 1.05724 43.0158 1.05566 41.8102V5.60113C1.05723 4.395 1.53752 3.23879 2.39105 2.38637C3.24459 1.53395 4.40161 1.055 5.60806 1.05469H154.392C154.989 1.05469 155.58 1.17229 156.132 1.40079C156.683 1.62928 157.185 1.96419 157.607 2.38638C158.029 2.80857 158.364 3.30978 158.592 3.86137C158.821 4.41296 158.938 5.00414 158.938 5.60113L158.939 41.8102Z" fill="black"/>
<path d="M35.7266 23.454C35.6922 19.6331 38.856 17.7742 39.0007 17.6876C37.2089 15.076 34.4317 14.7191 33.4557 14.6907C31.1232 14.4453 28.8606 16.086 27.6724 16.086C26.4605 16.086 24.6308 14.7144 22.6588 14.7547C20.1211 14.7938 17.7471 16.2626 16.445 18.5436C13.7579 23.1943 15.762 30.0288 18.3364 33.7881C19.6242 35.6304 21.129 37.6849 23.0987 37.6125C25.0257 37.5343 25.7455 36.3855 28.0709 36.3855C30.3749 36.3855 31.0509 37.6125 33.0597 37.5663C35.1277 37.5343 36.4298 35.7169 37.6725 33.8592C39.1607 31.7502 39.7584 29.6708 39.7821 29.5641C39.7347 29.5475 35.7669 28.0324 35.7266 23.454ZM31.9319 12.2177C32.9684 10.9219 33.6775 9.15906 33.4806 7.37012C31.9806 7.43651 30.1046 8.40744 29.0243 9.67475C28.0685 10.7915 27.2147 12.6219 27.4353 14.3433C29.1203 14.469 30.8505 13.4933 31.9319 12.2177Z" fill="white"/>
<path d="M154.392 0H74.6982L105.913 47.4075H154.392C155.878 47.4062 157.302 46.816 158.354 45.7661C159.405 44.7163 159.997 43.2926 160 41.8071V5.60273C159.997 4.11695 159.405 2.69279 158.354 1.64252C157.303 0.592244 155.878 0.00156715 154.392 0Z" fill="url(#paint0_linear_2851_10944)"/>
<path d="M63.6372 37.3482H60.9442L59.4691 32.7141H54.3415L52.9363 37.3482H50.3145L55.3957 21.5714H58.5334L63.6372 37.3482ZM59.0244 30.7698L57.6903 26.6502C57.5492 26.2293 57.2836 25.2382 56.8946 23.6781H56.8472C56.6907 24.3491 56.4404 25.3402 56.0977 26.6502L54.7862 30.7698H59.0244ZM76.679 31.5203C76.679 33.455 76.1537 34.9843 75.1018 36.107C74.1603 37.1064 72.9899 37.6055 71.5942 37.6055C70.087 37.6055 69.0031 37.0685 68.345 35.992V41.9611H65.8168V29.7112C65.8168 28.496 65.7848 27.25 65.7231 25.9721H67.9465L68.0877 27.7752H68.1351C68.9782 26.4166 70.2577 25.7373 71.9748 25.7373C73.3172 25.7373 74.4378 26.2673 75.3343 27.3283C76.2296 28.3917 76.679 29.7882 76.679 31.5203ZM74.1034 31.6127C74.1034 30.5055 73.8543 29.5926 73.3539 28.873C72.8073 28.125 72.0732 27.7503 71.153 27.7503C70.5293 27.7503 69.9624 27.959 69.4561 28.3704C68.9486 28.7853 68.6165 29.3271 68.4612 29.9981C68.3918 30.249 68.3524 30.5073 68.3438 30.7675V32.6655C68.3438 33.4918 68.5976 34.19 69.1051 34.7615C69.6126 35.3305 70.272 35.6162 71.0831 35.6162C72.0353 35.6162 72.7764 35.2475 73.3065 34.516C73.8377 33.7822 74.1034 32.8148 74.1034 31.6127ZM89.767 31.5203C89.767 33.455 89.2417 34.9843 88.1898 36.107C87.2471 37.1064 86.0779 37.6055 84.681 37.6055C83.1738 37.6055 82.0899 37.0685 81.4318 35.992V41.9611H78.9036V29.7112C78.9036 28.496 78.8716 27.25 78.8099 25.9721H81.0333L81.1745 27.7752H81.2219C82.0638 26.4166 83.3433 25.7373 85.0616 25.7373C86.4028 25.7373 87.5234 26.2673 88.4222 27.3283C89.3164 28.3917 89.767 29.7882 89.767 31.5203ZM87.1902 31.6127C87.1902 30.5055 86.94 29.5926 86.4395 28.873C85.8929 28.125 85.1612 27.7503 84.241 27.7503C83.6173 27.7503 83.0504 27.959 82.5417 28.3704C82.0342 28.7853 81.7033 29.3271 81.548 29.9981C81.4709 30.311 81.4294 30.5659 81.4294 30.7675V32.6655C81.4294 33.4918 81.6844 34.19 82.1895 34.7615C82.6971 35.3293 83.3564 35.6162 84.1699 35.6162C85.1233 35.6162 85.8644 35.2475 86.3933 34.516C86.9245 33.7822 87.1902 32.8148 87.1902 31.6127ZM104.4 32.9227C104.4 34.2659 103.931 35.3578 102.997 36.2007C101.97 37.1206 100.537 37.5818 98.6986 37.5818C97.0005 37.5818 95.6392 37.2546 94.6123 36.599L95.1969 34.4923C96.3056 35.1491 97.5235 35.4763 98.8492 35.4763C99.8026 35.4763 100.544 35.2606 101.073 34.8326C101.603 34.4034 101.871 33.8296 101.871 33.1136C101.871 32.4722 101.649 31.9352 101.214 31.4977C100.776 31.0615 100.053 30.6548 99.0366 30.2814C96.2736 29.2512 94.8909 27.7444 94.8909 25.7622C94.8909 24.4676 95.3795 23.4078 96.3543 22.5791C97.329 21.7516 98.6216 21.3379 100.23 21.3379C101.666 21.3379 102.862 21.588 103.812 22.0871L103.178 24.1476C102.283 23.6639 101.274 23.422 100.145 23.422C99.2536 23.422 98.554 23.6413 98.0536 24.0776C97.6326 24.4676 97.4191 24.943 97.4191 25.5073C97.4191 26.1297 97.6622 26.6466 98.146 27.0521C98.5658 27.4255 99.3319 27.8321 100.439 28.2684C101.798 28.8161 102.797 29.4539 103.436 30.1866C104.08 30.9192 104.4 31.8332 104.4 32.9227ZM112.78 27.8689H109.994V33.3922C109.994 34.797 110.485 35.4977 111.469 35.4977C111.921 35.4977 112.295 35.4597 112.592 35.3803L112.662 37.2996C112.164 37.4858 111.508 37.5794 110.696 37.5794C109.697 37.5794 108.917 37.2747 108.354 36.6654C107.793 36.056 107.511 35.0353 107.511 33.5985V27.8641H105.85V25.9673H107.511V23.8844L109.994 23.1351V25.9673H112.78V27.8689ZM125.329 31.5665C125.329 33.3151 124.828 34.7508 123.83 35.8735C122.785 37.0293 121.395 37.6055 119.663 37.6055C117.991 37.6055 116.662 37.0519 115.67 35.9458C114.679 34.8373 114.183 33.4408 114.183 31.7562C114.183 29.9933 114.695 28.5494 115.716 27.4267C116.74 26.3028 118.118 25.7409 119.85 25.7409C121.52 25.7409 122.861 26.2957 123.876 27.403C124.846 28.477 125.329 29.8641 125.329 31.5665ZM122.708 31.6246C122.708 30.5825 122.483 29.6886 122.031 28.9406C121.501 28.0372 120.742 27.5855 119.759 27.5855C118.746 27.5855 117.97 28.0372 117.441 28.9406C116.988 29.6886 116.762 30.5979 116.762 31.672C116.762 32.7153 116.988 33.6115 117.441 34.3572C117.987 35.2606 118.75 35.7122 119.738 35.7122C120.704 35.7122 121.462 35.2511 122.01 34.3347C122.475 33.5688 122.708 32.669 122.708 31.6246ZM133.55 28.1949C133.287 28.1474 133.02 28.124 132.753 28.125C131.864 28.125 131.176 28.4593 130.692 29.1326C130.273 29.7254 130.061 30.4746 130.061 31.3792V37.3482H127.533V29.5547C127.536 28.3605 127.511 27.1664 127.46 25.9732H129.662L129.754 28.1498H129.824C130.092 27.4018 130.512 26.7984 131.088 26.3467C131.616 25.952 132.257 25.7383 132.916 25.7373C133.149 25.7373 133.36 25.7539 133.548 25.7836L133.55 28.1949ZM144.857 31.1219C144.863 31.5062 144.832 31.8901 144.765 32.2683H137.18C137.208 33.3922 137.576 34.2529 138.28 34.8456C138.92 35.3744 139.746 35.6399 140.761 35.6399C141.884 35.6399 142.909 35.4621 143.83 35.1029L144.226 36.8563C143.149 37.3257 141.878 37.5593 140.411 37.5593C138.647 37.5593 137.262 37.04 136.254 36.0039C135.248 34.9665 134.744 33.5724 134.744 31.8261C134.744 30.1119 135.213 28.6833 136.151 27.544C137.133 26.3277 138.459 25.7195 140.129 25.7195C141.769 25.7195 143.011 26.3277 143.854 27.544C144.521 28.5079 144.857 29.7029 144.857 31.1219ZM142.446 30.4663C142.464 29.7159 142.298 29.0698 141.955 28.5233C141.518 27.8191 140.844 27.4682 139.942 27.4682C139.115 27.4682 138.442 27.8108 137.929 28.4984C137.508 29.0449 137.258 29.7017 137.181 30.464L142.446 30.4663Z" fill="white"/>
<path d="M53.6128 15.9936C52.9096 15.9936 52.3013 15.9593 51.7949 15.9012V8.27358C52.5031 8.16421 53.2188 8.11031 53.9353 8.11235C56.8347 8.11235 58.1699 9.53853 58.1699 11.8633C58.1699 14.5449 56.5928 15.9936 53.6128 15.9936ZM54.0373 9.0904C53.646 9.0904 53.3128 9.11411 53.0365 9.17102V14.9694C53.1859 14.9931 53.4729 15.0037 53.876 15.0037C55.7757 15.0037 56.8572 13.9226 56.8572 11.8977C56.8572 10.0922 55.8789 9.0904 54.0373 9.0904ZM62.331 16.0517C60.6969 16.0517 59.638 14.8318 59.638 13.1757C59.638 11.4496 60.7195 10.219 62.4235 10.219C64.0339 10.219 65.1165 11.3808 65.1165 13.0844C65.1165 14.8318 64.0007 16.0517 62.331 16.0517ZM62.3784 11.1271C61.4808 11.1271 60.9056 11.9665 60.9056 13.1401C60.9056 14.2912 61.4926 15.1306 62.3666 15.1306C63.2405 15.1306 63.8275 14.2332 63.8275 13.1164C63.8275 11.9783 63.2524 11.1271 62.3784 11.1271ZM74.4348 10.334L72.6857 15.9249H71.5461L70.8215 13.497C70.6414 12.9031 70.4914 12.3005 70.3721 11.6914H70.3484C70.2571 12.3008 70.084 12.9113 69.9002 13.497L69.1294 15.9249H67.9779L66.332 10.334H67.6091L68.2424 12.9919C68.3918 13.625 68.5175 14.2225 68.6218 14.7868H68.6455C68.7369 14.3161 68.8863 13.7281 69.1057 13.0038L69.9002 10.3352H70.9129L71.673 12.9469C71.8568 13.5799 72.0062 14.2011 72.1224 14.788H72.1556C72.2362 14.213 72.3631 13.6025 72.5351 12.9469L73.2145 10.3352L74.4348 10.334ZM80.8738 15.9249H79.6311V12.7145C79.6311 11.7258 79.2516 11.2303 78.5033 11.2303C77.7669 11.2303 77.2606 11.8633 77.2606 12.5995V15.9249H76.0178V11.9321C76.0178 11.4377 76.006 10.9078 75.9716 10.3328H77.0649L77.123 11.1959H77.1574C77.4918 10.5984 78.1701 10.219 78.9302 10.219C80.1042 10.219 80.875 11.1164 80.875 12.577L80.8738 15.9249ZM84.3009 15.9249H83.0569V7.76855H84.3009V15.9249ZM88.8319 16.0517C87.199 16.0517 86.1389 14.8318 86.1389 13.1757C86.1389 11.4496 87.2204 10.219 88.9232 10.219C90.5348 10.219 91.6162 11.3808 91.6162 13.0844C91.6174 14.8318 90.5004 16.0517 88.8319 16.0517ZM88.8782 11.1271C87.9805 11.1271 87.4054 11.9665 87.4054 13.1401C87.4054 14.2912 87.9935 15.1306 88.8651 15.1306C89.7403 15.1306 90.3261 14.2332 90.3261 13.1164C90.3272 11.9783 89.7533 11.1271 88.8782 11.1271ZM96.5161 15.9249L96.426 15.2812H96.3928C96.0133 15.7992 95.4595 16.0517 94.7575 16.0517C93.7555 16.0517 93.044 15.3499 93.044 14.4062C93.044 13.0263 94.2405 12.3126 96.3121 12.3126V12.2095C96.3121 11.4733 95.922 11.1046 95.1512 11.1046C94.5998 11.1046 94.116 11.2433 93.6903 11.5195L93.4377 10.7027C93.9547 10.3802 94.5998 10.219 95.3575 10.219C96.8185 10.219 97.5561 10.9896 97.5561 12.5319V14.5912C97.5561 15.1555 97.581 15.5929 97.6367 15.9261L96.5161 15.9249ZM96.3453 13.1401C94.965 13.1401 94.2725 13.4744 94.2725 14.2675C94.2725 14.8544 94.6294 15.1413 95.1251 15.1413C95.7572 15.1413 96.3453 14.6588 96.3453 14.0032V13.1401ZM103.591 15.9249L103.533 15.0274H103.498C103.141 15.7056 102.541 16.0517 101.703 16.0517C100.355 16.0517 99.3561 14.8662 99.3561 13.1982C99.3561 11.4496 100.391 10.2178 101.805 10.2178C102.553 10.2178 103.083 10.4703 103.382 10.9777H103.407V7.76855H104.651V14.4181C104.651 14.9587 104.664 15.4649 104.697 15.9249H103.591ZM103.407 12.6351C103.407 11.8526 102.889 11.1852 102.098 11.1852C101.176 11.1852 100.613 12.002 100.613 13.152C100.613 14.2794 101.198 15.0512 102.073 15.0512C102.854 15.0512 103.407 14.3719 103.407 13.5669V12.6351ZM112.538 16.0517C110.905 16.0517 109.846 14.8318 109.846 13.1757C109.846 11.4496 110.927 10.219 112.63 10.219C114.242 10.219 115.323 11.3808 115.323 13.0844C115.325 14.8318 114.209 16.0517 112.538 16.0517ZM112.584 11.1271C111.688 11.1271 111.112 11.9665 111.112 13.1401C111.112 14.2912 111.699 15.1306 112.572 15.1306C113.447 15.1306 114.033 14.2332 114.033 13.1164C114.036 11.9783 113.46 11.1271 112.584 11.1271ZM122.007 15.9249H120.763V12.7145C120.763 11.7258 120.383 11.2303 119.635 11.2303C118.899 11.2303 118.393 11.8633 118.393 12.5995V15.9249H117.15V11.9321C117.15 11.4377 117.138 10.9078 117.103 10.3328H118.197L118.255 11.1959H118.289C118.622 10.5984 119.302 10.2178 120.061 10.2178C121.235 10.2178 122.007 11.1153 122.007 12.5758V15.9249ZM130.368 11.2658H129.001V13.9806C129.001 14.6718 129.24 15.0168 129.724 15.0168C129.943 15.0168 130.127 14.9931 130.275 14.9587L130.31 15.9024C130.069 15.9948 129.747 16.0411 129.346 16.0411C128.366 16.0411 127.78 15.5005 127.78 14.085V11.2658H126.965V10.334H127.78V9.30972L129.001 8.94103V10.3328H130.368V11.2658ZM136.947 15.9249H135.705V12.7382C135.705 11.7377 135.327 11.2314 134.578 11.2314C133.934 11.2314 133.334 11.6689 133.334 12.5545V15.9249H132.092V7.76855H133.334V11.1271H133.359C133.75 10.5178 134.317 10.2178 135.04 10.2178C136.224 10.2178 136.947 11.1378 136.947 12.5995V15.9249ZM143.687 13.4282H139.958C139.981 14.4869 140.682 15.0844 141.72 15.0844C142.271 15.0844 142.779 14.9919 143.227 14.82L143.42 15.683C142.891 15.913 142.269 16.028 141.544 16.028C139.795 16.028 138.76 14.9231 138.76 13.2101C138.76 11.4958 139.82 10.2072 141.404 10.2072C142.833 10.2072 143.73 11.2658 143.73 12.8651C143.738 13.0538 143.724 13.2428 143.687 13.4282ZM142.548 12.5426C142.548 11.6796 142.112 11.0702 141.318 11.0702C140.604 11.0702 140.04 11.6914 139.959 12.5426H142.548Z" fill="white"/>
<defs>
<linearGradient id="paint0_linear_2851_10944" x1="117.348" y1="47.5333" x2="117.348" y2="-123.441" gradientUnits="userSpaceOnUse">
<stop stop-color="#1A1A1A" stop-opacity="0.1"/>
<stop offset="0.123" stop-color="#212121" stop-opacity="0.151"/>
<stop offset="0.308" stop-color="#353535" stop-opacity="0.227"/>
<stop offset="0.532" stop-color="#575757" stop-opacity="0.318"/>
<stop offset="0.783" stop-color="#858585" stop-opacity="0.421"/>
<stop offset="1" stop-color="#B3B3B3" stop-opacity="0.51"/>
</linearGradient>
</defs>
</svg>
