<svg width="225" height="80" viewBox="0 0 225 80" fill="none" xmlns="http://www.w3.org/2000/svg">
<path d="M202.007 79.2415C200.823 79.2415 199.806 78.9909 198.956 78.4895C198.113 77.9882 197.463 77.2798 197.005 76.3644C196.547 75.4417 196.318 74.3482 196.318 73.084V73.0731C196.318 71.8235 196.547 70.7337 197.005 69.8037C197.463 68.8737 198.106 68.1544 198.934 67.6458C199.769 67.13 200.75 66.8721 201.876 66.8721C203.01 66.8721 203.983 67.1227 204.797 67.624C205.618 68.1181 206.247 68.8119 206.683 69.7056C207.126 70.5993 207.347 71.6418 207.347 72.8334V73.7379H197.681V71.9179H206.029L204.732 73.618V72.5391C204.732 71.7472 204.612 71.0897 204.372 70.5666C204.132 70.0434 203.802 69.6511 203.38 69.3896C202.959 69.128 202.469 68.9972 201.909 68.9972C201.357 68.9972 200.863 69.1353 200.427 69.4113C199.991 69.6802 199.65 70.0798 199.403 70.6101C199.156 71.1333 199.032 71.7763 199.032 72.5391V73.6289C199.032 74.3555 199.152 74.9803 199.392 75.5034C199.639 76.0266 199.987 76.4262 200.438 76.7022C200.896 76.9783 201.437 77.1164 202.062 77.1164C202.548 77.1164 202.966 77.0473 203.315 76.9093C203.671 76.764 203.958 76.5933 204.176 76.3971C204.394 76.1937 204.547 75.9975 204.634 75.8086L204.666 75.7323H207.238L207.217 75.8413C207.122 76.2264 206.948 76.6187 206.693 77.0183C206.439 77.4106 206.101 77.7775 205.68 78.119C205.259 78.4532 204.743 78.7257 204.132 78.9364C203.522 79.1398 202.814 79.2415 202.007 79.2415Z" fill="#A266D0"/>
<path d="M188.884 79.0023V67.1123H191.597V68.9432H191.783C191.986 68.2966 192.349 67.7953 192.873 67.4393C193.396 67.0833 194.046 66.9053 194.823 66.9053C195.027 66.9053 195.227 66.9198 195.423 66.9489C195.619 66.9707 195.786 66.9997 195.924 67.0361V69.4663C195.706 69.4155 195.484 69.3792 195.259 69.3574C195.041 69.3283 194.812 69.3138 194.573 69.3138C193.977 69.3138 193.454 69.4264 193.003 69.6516C192.56 69.8768 192.215 70.1965 191.968 70.6107C191.721 71.0248 191.597 71.5188 191.597 72.0928V79.0023H188.884Z" fill="#A266D0"/>
<path d="M180.131 79.241C179.238 79.241 178.489 79.0703 177.886 78.7288C177.283 78.3801 176.829 77.8751 176.524 77.214C176.219 76.5455 176.066 75.7427 176.066 74.8055V67.1113H178.78V74.1734C178.78 75.0961 178.962 75.7899 179.325 76.2549C179.688 76.7199 180.28 76.9524 181.101 76.9524C181.537 76.9524 181.922 76.887 182.257 76.7562C182.591 76.6182 182.871 76.422 183.096 76.1677C183.328 75.9134 183.503 75.6083 183.619 75.2523C183.735 74.889 183.793 74.4858 183.793 74.0426V67.1113H186.507V79.0013H183.793V77.1922H183.608C183.426 77.6135 183.172 77.9805 182.845 78.2929C182.518 78.598 182.126 78.8341 181.668 79.0013C181.21 79.1611 180.698 79.241 180.131 79.241Z" fill="#A266D0"/>
<path d="M172.971 79.0676C171.612 79.0676 170.631 78.8169 170.028 78.3156C169.433 77.8143 169.135 76.9897 169.135 75.8417V69.2047H167.293V67.1123H169.135V64.1807H171.881V67.1123H174.388V69.2047H171.881V75.2096C171.881 75.8054 172.008 76.2377 172.263 76.5065C172.517 76.7681 172.924 76.8989 173.483 76.8989C173.672 76.8989 173.828 76.8952 173.952 76.888C174.083 76.8807 174.228 76.8698 174.388 76.8553V78.9477C174.199 78.9768 173.981 79.0022 173.734 79.024C173.494 79.0531 173.24 79.0676 172.971 79.0676Z" fill="#A266D0"/>
<path d="M159.554 79.241C158.661 79.241 157.912 79.0703 157.309 78.7288C156.706 78.3801 156.252 77.8751 155.947 77.214C155.642 76.5455 155.489 75.7427 155.489 74.8055V67.1113H158.203V74.1734C158.203 75.0961 158.385 75.7899 158.748 76.2549C159.111 76.7199 159.703 76.9524 160.524 76.9524C160.96 76.9524 161.345 76.887 161.679 76.7562C162.014 76.6182 162.293 76.422 162.519 76.1677C162.751 75.9134 162.925 75.6083 163.042 75.2523C163.158 74.889 163.216 74.4858 163.216 74.0426V67.1113H165.93V79.0013H163.216V77.1922H163.031C162.849 77.6135 162.595 77.9805 162.268 78.2929C161.941 78.598 161.549 78.8341 161.091 79.0013C160.633 79.1611 160.121 79.241 159.554 79.241Z" fill="#A266D0"/>
<path d="M148.666 79.0024V69.2049H146.727V67.1125H148.666V65.9246C148.666 65.1326 148.801 64.4751 149.07 63.952C149.346 63.4289 149.767 63.0402 150.334 62.7859C150.908 62.5243 151.634 62.3936 152.514 62.3936C152.804 62.3936 153.069 62.4045 153.309 62.4262C153.556 62.448 153.789 62.4771 154.007 62.5134V64.4097C153.905 64.3879 153.774 64.3734 153.614 64.3661C153.454 64.3516 153.28 64.3443 153.091 64.3443C152.459 64.3443 152.005 64.4933 151.729 64.7912C151.46 65.0818 151.326 65.5104 151.326 66.0771V67.1125H153.908V69.2049H151.369V79.0024H148.666Z" fill="#A266D0"/>
<path d="M134.454 79.0023V67.1123H137.168V68.9432H137.353C137.556 68.2966 137.92 67.7953 138.443 67.4393C138.966 67.0833 139.616 66.9053 140.394 66.9053C140.597 66.9053 140.797 66.9198 140.993 66.9489C141.189 66.9707 141.356 66.9997 141.494 67.0361V69.4663C141.276 69.4155 141.055 69.3792 140.83 69.3574C140.612 69.3283 140.383 69.3138 140.143 69.3138C139.547 69.3138 139.024 69.4264 138.574 69.6516C138.13 69.8768 137.785 70.1965 137.538 70.6107C137.291 71.0248 137.168 71.5188 137.168 72.0928V79.0023H134.454Z" fill="#A266D0"/>
<path d="M127.326 79.2415C126.141 79.2415 125.124 78.9909 124.274 78.4895C123.431 77.9882 122.781 77.2798 122.323 76.3644C121.866 75.4417 121.637 74.3482 121.637 73.084V73.0731C121.637 71.8235 121.866 70.7337 122.323 69.8037C122.781 68.8737 123.424 68.1544 124.252 67.6458C125.088 67.13 126.069 66.8721 127.195 66.8721C128.328 66.8721 129.302 67.1227 130.116 67.624C130.937 68.1181 131.565 68.8119 132.001 69.7056C132.444 70.5993 132.666 71.6418 132.666 72.8334V73.7379H122.999V71.9179H131.347L130.05 73.618V72.5391C130.05 71.7472 129.93 71.0897 129.69 70.5666C129.451 70.0434 129.12 69.6511 128.699 69.3896C128.277 69.128 127.787 68.9972 127.227 68.9972C126.675 68.9972 126.181 69.1353 125.745 69.4113C125.309 69.6802 124.968 70.0798 124.721 70.6101C124.474 71.1333 124.35 71.7763 124.35 72.5391V73.6289C124.35 74.3555 124.47 74.9803 124.71 75.5034C124.957 76.0266 125.306 76.4262 125.756 76.7022C126.214 76.9783 126.755 77.1164 127.38 77.1164C127.867 77.1164 128.285 77.0473 128.633 76.9093C128.989 76.764 129.276 76.5933 129.494 76.3971C129.712 76.1937 129.865 75.9975 129.952 75.8086L129.985 75.7323H132.557L132.535 75.8413C132.44 76.2264 132.266 76.6187 132.012 77.0183C131.758 77.4106 131.42 77.7775 130.998 78.119C130.577 78.4532 130.061 78.7257 129.451 78.9364C128.84 79.1398 128.132 79.2415 127.326 79.2415Z" fill="#A266D0"/>
<path d="M119.128 79.0676C117.77 79.0676 116.789 78.8169 116.186 78.3156C115.59 77.8143 115.292 76.9897 115.292 75.8417V69.2047H113.45V67.1123H115.292V64.1807H118.038V67.1123H120.545V69.2047H118.038V75.2096C118.038 75.8054 118.165 76.2377 118.42 76.5065C118.674 76.7681 119.081 76.8989 119.64 76.8989C119.829 76.8989 119.985 76.8952 120.109 76.888C120.24 76.8807 120.385 76.8698 120.545 76.8553V78.9477C120.356 78.9768 120.138 79.0022 119.891 79.024C119.651 79.0531 119.397 79.0676 119.128 79.0676Z" fill="#A266D0"/>
<path d="M111.195 79.0676C109.836 79.0676 108.855 78.8169 108.252 78.3156C107.656 77.8143 107.358 76.9897 107.358 75.8417V69.2047H105.517V67.1123H107.358V64.1807H110.105V67.1123H112.611V69.2047H110.105V75.2096C110.105 75.8054 110.232 76.2377 110.486 76.5065C110.74 76.7681 111.147 76.8989 111.707 76.8989C111.896 76.8989 112.052 76.8952 112.175 76.888C112.306 76.8807 112.451 76.8698 112.611 76.8553V78.9477C112.422 78.9768 112.204 79.0022 111.957 79.024C111.718 79.0531 111.463 79.0676 111.195 79.0676Z" fill="#A266D0"/>
<path d="M99.4017 79.2415C98.2175 79.2415 97.2003 78.9909 96.3503 78.4895C95.5075 77.9882 94.8572 77.2798 94.3995 76.3644C93.9418 75.4417 93.7129 74.3482 93.7129 73.084V73.0731C93.7129 71.8235 93.9418 70.7337 94.3995 69.8037C94.8572 68.8737 95.5002 68.1544 96.3285 67.6458C97.164 67.13 98.1448 66.8721 99.271 66.8721C100.404 66.8721 101.378 67.1227 102.192 67.624C103.013 68.1181 103.641 68.8119 104.077 69.7056C104.52 70.5993 104.742 71.6418 104.742 72.8334V73.7379H95.0752V71.9179H103.423L102.126 73.618V72.5391C102.126 71.7472 102.006 71.0897 101.767 70.5666C101.527 70.0434 101.196 69.6511 100.775 69.3896C100.354 69.128 99.8631 68.9972 99.3037 68.9972C98.7515 68.9972 98.2574 69.1353 97.8215 69.4113C97.3856 69.6802 97.0441 70.0798 96.7971 70.6101C96.5501 71.1333 96.4265 71.7763 96.4265 72.5391V73.6289C96.4265 74.3555 96.5464 74.9803 96.7862 75.5034C97.0332 76.0266 97.3819 76.4262 97.8324 76.7022C98.2901 76.9783 98.8314 77.1164 99.4562 77.1164C99.943 77.1164 100.361 77.0473 100.71 76.9093C101.066 76.764 101.353 76.5933 101.57 76.3971C101.788 76.1937 101.941 75.9975 102.028 75.8086L102.061 75.7323H104.633L104.611 75.8413C104.517 76.2264 104.342 76.6187 104.088 77.0183C103.834 77.4106 103.496 77.7775 103.074 78.119C102.653 78.4532 102.137 78.7257 101.527 78.9364C100.917 79.1398 100.208 79.2415 99.4017 79.2415Z" fill="#A266D0"/>
<path d="M87.6195 79.1988C87.0673 79.1988 86.5551 79.1189 86.0829 78.959C85.6179 78.7919 85.211 78.5558 84.8623 78.2507C84.5135 77.9382 84.2265 77.5677 84.0013 77.139H83.8269V79.0026H81.1133V62.5137H83.8269V69.009H84.0013C84.212 68.5731 84.4954 68.2025 84.8514 67.8974C85.2146 67.585 85.6288 67.3416 86.0938 67.1672C86.566 66.9928 87.0746 66.9056 87.6195 66.9056C88.6294 66.9056 89.4976 67.1563 90.2242 67.6576C90.958 68.1517 91.5211 68.8564 91.9134 69.7719C92.313 70.6873 92.5128 71.7771 92.5128 73.0413V73.0631C92.5128 74.32 92.313 75.4099 91.9134 76.3326C91.5138 77.248 90.9471 77.9564 90.2133 78.4577C89.4867 78.9518 88.6221 79.1988 87.6195 79.1988ZM86.7803 76.9102C87.3979 76.9102 87.9283 76.7576 88.3715 76.4525C88.8147 76.1473 89.1525 75.7077 89.385 75.1338C89.6248 74.5525 89.7446 73.8623 89.7446 73.0631V73.0413C89.7446 72.2421 89.6248 71.5555 89.385 70.9816C89.1525 70.4076 88.8147 69.968 88.3715 69.6629C87.9283 69.3505 87.3979 69.1943 86.7803 69.1943C86.17 69.1943 85.6397 69.3505 85.1892 69.6629C84.7387 69.9753 84.39 70.4185 84.143 70.9925C83.9032 71.5664 83.7833 72.253 83.7833 73.0522V73.074C83.7833 73.866 83.9032 74.5489 84.143 75.1229C84.39 75.6969 84.7351 76.14 85.1783 76.4525C85.6288 76.7576 86.1628 76.9102 86.7803 76.9102Z" fill="#A266D0"/>
<path d="M67.3255 79.1979C66.5699 79.1979 65.8979 79.0526 65.3094 78.762C64.7209 78.4714 64.2559 78.0609 63.9144 77.5305C63.5802 76.9929 63.4131 76.3644 63.4131 75.6451V75.6233C63.4131 74.9113 63.5875 74.301 63.9362 73.7924C64.2849 73.2838 64.7972 72.8842 65.4728 72.5936C66.1485 72.303 66.9659 72.1286 67.9249 72.0705L72.3387 71.809V73.5963L68.3064 73.8469C67.5508 73.8905 66.9913 74.054 66.6281 74.3373C66.2648 74.6134 66.0831 74.9949 66.0831 75.4816V75.5034C66.0831 76.012 66.2757 76.408 66.6607 76.6913C67.0531 76.9747 67.5471 77.1164 68.1429 77.1164C68.6951 77.1164 69.1819 77.0074 69.6033 76.7894C70.0319 76.5715 70.3698 76.2772 70.6168 75.9067C70.8638 75.5289 70.9873 75.1038 70.9873 74.6316V70.8826C70.9873 70.2868 70.7984 69.8291 70.4206 69.5094C70.0428 69.1898 69.487 69.0299 68.7532 69.0299C68.1284 69.0299 67.6198 69.1389 67.2275 69.3569C66.8351 69.5748 66.5736 69.88 66.4428 70.2723L66.421 70.3159H63.8708L63.8817 70.2178C63.9689 69.5494 64.2268 68.9645 64.6555 68.4632C65.0914 67.9619 65.669 67.5732 66.3883 67.2971C67.1076 67.0137 67.9395 66.8721 68.884 66.8721C69.9084 66.8721 70.7766 67.0319 71.4886 67.3516C72.2007 67.664 72.7419 68.1217 73.1125 68.7248C73.4903 69.3205 73.6792 70.0362 73.6792 70.8717V79.0018H70.9873V77.3561H70.8021C70.5914 77.7412 70.3116 78.0718 69.9629 78.3479C69.6214 78.624 69.2255 78.8347 68.775 78.98C68.3318 79.1253 67.8486 79.1979 67.3255 79.1979Z" fill="#A266D0"/>
<path d="M50.7266 79.0023V67.1123H53.4402V68.9432H53.6255C53.8289 68.2966 54.1922 67.7953 54.7153 67.4393C55.2384 67.0833 55.8887 66.9053 56.6661 66.9053C56.8695 66.9053 57.0693 66.9198 57.2655 66.9489C57.4616 66.9707 57.6288 66.9997 57.7668 67.0361V69.4663C57.5488 69.4155 57.3272 69.3792 57.102 69.3574C56.884 69.3283 56.6552 69.3138 56.4154 69.3138C55.8197 69.3138 55.2965 69.4264 54.8461 69.6516C54.4029 69.8768 54.0578 70.1965 53.8108 70.6107C53.5637 71.0248 53.4402 71.5188 53.4402 72.0928V79.0023H50.7266Z" fill="#A266D0"/>
<path d="M43.2051 79.2415C42.0208 79.2415 41 78.9945 40.1427 78.5004C39.2854 77.9991 38.6242 77.2871 38.1592 76.3644C37.7015 75.4417 37.4727 74.341 37.4727 73.0622V73.0404C37.4727 71.7617 37.7052 70.6646 38.1701 69.7492C38.6351 68.8265 39.2963 68.1181 40.1536 67.624C41.0109 67.1227 42.0281 66.8721 43.2051 66.8721C44.3894 66.8721 45.4065 67.1191 46.2566 67.6131C47.1139 68.1072 47.7714 68.8156 48.2292 69.7383C48.6942 70.661 48.9267 71.7617 48.9267 73.0404V73.0622C48.9267 74.341 48.6978 75.4417 48.2401 76.3644C47.7823 77.2871 47.1248 77.9991 46.2675 78.5004C45.4174 78.9945 44.3966 79.2415 43.2051 79.2415ZM43.2051 77.0401C43.8299 77.0401 44.3603 76.8839 44.7962 76.5715C45.2394 76.2518 45.5773 75.7977 45.8098 75.2092C46.0423 74.6134 46.1585 73.8978 46.1585 73.0622V73.0404C46.1585 72.2049 46.0423 71.4929 45.8098 70.9044C45.5773 70.3086 45.2394 69.8545 44.7962 69.5421C44.3603 69.2224 43.8299 69.0626 43.2051 69.0626C42.5803 69.0626 42.0463 69.2224 41.6031 69.5421C41.1671 69.8545 40.8329 70.3086 40.6004 70.9044C40.3679 71.4929 40.2517 72.2049 40.2517 73.0404V73.0622C40.2517 73.8978 40.3679 74.6134 40.6004 75.2092C40.8329 75.805 41.1671 76.259 41.6031 76.5715C42.0463 76.8839 42.5803 77.0401 43.2051 77.0401Z" fill="#A266D0"/>
<path d="M26.1592 79.0025V63.2764H36.1855V65.6413H28.9709V70.2948H35.5643V72.5834H28.9709V79.0025H26.1592Z" fill="#A266D0"/>
<path d="M200.829 12.0029C206.884 12.0029 212.325 13.0192 217.152 15.0516C221.979 17.0841 224.392 20.662 224.392 25.7855V48.1425H210.546L209.466 43.633V43.3155C208.408 45.2209 206.164 46.6182 202.734 47.5074C199.347 48.3966 195.642 48.8412 191.619 48.8412C188.401 48.8412 185.183 48.1425 181.965 46.7452C178.747 45.3056 177.138 42.3204 177.138 37.7897C177.138 30.6338 181.817 27.0558 191.174 27.0558C197.187 27.0558 201.379 27.0135 203.75 26.9288C206.121 26.8017 207.688 26.59 208.45 26.2936C209.212 25.9549 209.615 25.3621 209.657 24.5152V23.6895C209.615 22.2922 208.683 21.276 206.862 20.6409C205.084 19.9634 203.052 19.6246 200.765 19.6246C198.394 19.667 196.361 20.1116 194.668 20.9584C193.016 21.8053 192.191 23.0967 192.191 24.8328H177.519C177.519 21.6148 178.789 19.053 181.33 17.1476C183.87 15.1998 186.898 13.866 190.412 13.1462C193.969 12.384 197.441 12.0029 200.829 12.0029ZM199.876 39.5681C203.009 39.5681 205.38 38.8695 206.989 37.4721C208.598 36.0748 209.466 34.2964 209.593 32.1369V31.2477C207.984 31.9252 205.423 32.264 201.908 32.264C198.267 32.264 195.705 32.518 194.223 33.0261C192.783 33.5343 192.042 34.4658 192 35.8208C192.127 37.0911 192.783 38.0438 193.969 38.6789C195.197 39.2717 197.166 39.5681 199.876 39.5681Z" fill="url(#paint0_linear_2847_10905)"/>
<path d="M158.36 12.3856C163.357 12.3856 167.337 14.0793 170.301 17.4667C173.307 20.8541 174.81 26.3164 174.81 33.8534V48.1441H160.202V34.0439C160.202 31.3763 160.054 29.1957 159.757 27.502C159.461 25.8083 158.741 24.3898 157.598 23.2465C156.455 22.1033 154.676 21.5316 152.263 21.5316C149.722 21.5316 147.838 22.1244 146.61 23.31C145.382 24.4533 144.599 25.8929 144.26 27.629C143.921 29.3227 143.752 31.4398 143.752 33.9804V48.1441H129.144V1.14355H143.752V17.7208C146.97 14.164 151.839 12.3856 158.36 12.3856Z" fill="url(#paint1_linear_2847_10905)"/>
<path d="M79.6875 31.058C79.6875 27.5012 80.7461 24.3043 82.8632 21.4673C84.9803 18.588 87.8808 16.3439 91.5647 14.7348C95.2485 13.1258 99.3134 12.3213 103.759 12.3213C107.994 12.3213 111.72 12.9776 114.938 14.2902C118.198 15.5605 120.824 17.3601 122.814 19.6889C124.804 22.0178 126.116 24.7066 126.752 27.7552H112.143C111.678 25.8498 110.704 24.3255 109.222 23.1822C107.74 22.039 105.94 21.4673 103.823 21.4673C101.071 21.4673 98.8265 22.3565 97.0904 24.1349C95.3543 25.871 94.4863 28.1787 94.4863 31.058C94.4863 33.8526 95.3332 36.1603 97.0269 37.981C98.7206 39.7594 100.944 40.6486 103.696 40.6486C105.855 40.6486 107.676 40.077 109.158 38.9338C110.64 37.7905 111.614 36.2873 112.08 34.4242H126.688C126.222 37.3036 124.952 39.9076 122.877 42.2365C120.802 44.5653 118.092 46.4073 114.747 47.7622C111.445 49.1172 107.782 49.7947 103.759 49.7947C99.3557 49.7947 95.312 48.9902 91.6282 47.3811C87.9444 45.7298 85.0227 43.4856 82.8632 40.6486C80.7461 37.7693 79.6875 34.5724 79.6875 31.058Z" fill="url(#paint2_linear_2847_10905)"/>
<path d="M62.6981 13.5273H77.3064V48.1426H62.6981V43.8236C59.4801 47.4651 54.5895 49.2859 48.0263 49.2859C42.8182 49.2859 38.7744 47.6133 35.8951 44.2682C33.0581 40.9232 31.6396 35.4398 31.6396 27.818V13.5273H46.2479V27.6275C46.2479 30.2951 46.3961 32.4758 46.6925 34.1695C46.9889 35.8632 47.7087 37.2817 48.852 38.4249C49.9953 39.5682 51.7737 40.1398 54.1872 40.1398C57.5323 40.1398 59.7765 38.9966 60.9197 36.71C62.1053 34.3812 62.6981 31.3537 62.6981 27.6275V13.5273Z" fill="url(#paint3_linear_2847_10905)"/>
<path d="M28.6449 17.5934V27.5652H21.4678V48.1438H6.85954V27.5652H0V17.5934H6.85954V13.0204C6.85954 7.98162 8.63794 4.55185 12.1947 2.73111C15.7515 0.910371 19.7529 0 24.1989 0C25.7656 0 27.1629 0.0846866 28.3909 0.254058V11.8772C26.2737 11.8772 24.7494 12.0042 23.8178 12.2582C22.8863 12.5123 22.2512 13.0204 21.9124 13.7826C21.616 14.5024 21.4678 15.688 21.4678 17.3394V17.5934H28.6449Z" fill="url(#paint4_linear_2847_10905)"/>
<path d="M200.829 12.0029C206.884 12.0029 212.325 13.0192 217.152 15.0516C221.979 17.0841 224.392 20.662 224.392 25.7855V48.1425H210.546L209.466 43.633V43.3155C208.408 45.2209 206.164 46.6182 202.734 47.5074C199.347 48.3966 195.642 48.8412 191.619 48.8412C188.401 48.8412 185.183 48.1425 181.965 46.7452C178.747 45.3056 177.138 42.3204 177.138 37.7897C177.138 30.6338 181.817 27.0558 191.174 27.0558C197.187 27.0558 201.379 27.0135 203.75 26.9288C206.121 26.8017 207.688 26.59 208.45 26.2936C209.212 25.9549 209.615 25.3621 209.657 24.5152V23.6895C209.615 22.2922 208.683 21.276 206.862 20.6409C205.084 19.9634 203.052 19.6246 200.765 19.6246C198.394 19.667 196.361 20.1116 194.668 20.9584C193.016 21.8053 192.191 23.0967 192.191 24.8328H177.519C177.519 21.6148 178.789 19.053 181.33 17.1476C183.87 15.1998 186.898 13.866 190.412 13.1462C193.969 12.384 197.441 12.0029 200.829 12.0029ZM199.876 39.5681C203.009 39.5681 205.38 38.8695 206.989 37.4721C208.598 36.0748 209.466 34.2964 209.593 32.1369V31.2477C207.984 31.9252 205.423 32.264 201.908 32.264C198.267 32.264 195.705 32.518 194.223 33.0261C192.783 33.5343 192.042 34.4658 192 35.8208C192.127 37.0911 192.783 38.0438 193.969 38.6789C195.197 39.2717 197.166 39.5681 199.876 39.5681Z" fill="url(#paint5_linear_2847_10905)"/>
<path d="M158.36 12.3856C163.357 12.3856 167.337 14.0793 170.301 17.4667C173.307 20.8541 174.81 26.3164 174.81 33.8534V48.1441H160.202V34.0439C160.202 31.3763 160.054 29.1957 159.757 27.502C159.461 25.8083 158.741 24.3898 157.598 23.2465C156.455 22.1033 154.676 21.5316 152.263 21.5316C149.722 21.5316 147.838 22.1244 146.61 23.31C145.382 24.4533 144.599 25.8929 144.26 27.629C143.921 29.3227 143.752 31.4398 143.752 33.9804V48.1441H129.144V1.14355H143.752V17.7208C146.97 14.164 151.839 12.3856 158.36 12.3856Z" fill="url(#paint6_linear_2847_10905)"/>
<path d="M79.6875 31.058C79.6875 27.5012 80.7461 24.3043 82.8632 21.4673C84.9803 18.588 87.8808 16.3439 91.5647 14.7348C95.2485 13.1258 99.3134 12.3213 103.759 12.3213C107.994 12.3213 111.72 12.9776 114.938 14.2902C118.198 15.5605 120.824 17.3601 122.814 19.6889C124.804 22.0178 126.116 24.7066 126.752 27.7552H112.143C111.678 25.8498 110.704 24.3255 109.222 23.1822C107.74 22.039 105.94 21.4673 103.823 21.4673C101.071 21.4673 98.8265 22.3565 97.0904 24.1349C95.3543 25.871 94.4863 28.1787 94.4863 31.058C94.4863 33.8526 95.3332 36.1603 97.0269 37.981C98.7206 39.7594 100.944 40.6486 103.696 40.6486C105.855 40.6486 107.676 40.077 109.158 38.9338C110.64 37.7905 111.614 36.2873 112.08 34.4242H126.688C126.222 37.3036 124.952 39.9076 122.877 42.2365C120.802 44.5653 118.092 46.4073 114.747 47.7622C111.445 49.1172 107.782 49.7947 103.759 49.7947C99.3557 49.7947 95.312 48.9902 91.6282 47.3811C87.9444 45.7298 85.0227 43.4856 82.8632 40.6486C80.7461 37.7693 79.6875 34.5724 79.6875 31.058Z" fill="url(#paint7_linear_2847_10905)"/>
<path d="M62.6981 13.5273H77.3064V48.1426H62.6981V43.8236C59.4801 47.4651 54.5895 49.2859 48.0263 49.2859C42.8182 49.2859 38.7744 47.6133 35.8951 44.2682C33.0581 40.9232 31.6396 35.4398 31.6396 27.818V13.5273H46.2479V27.6275C46.2479 30.2951 46.3961 32.4758 46.6925 34.1695C46.9889 35.8632 47.7087 37.2817 48.852 38.4249C49.9953 39.5682 51.7737 40.1398 54.1872 40.1398C57.5323 40.1398 59.7765 38.9966 60.9197 36.71C62.1053 34.3812 62.6981 31.3537 62.6981 27.6275V13.5273Z" fill="url(#paint8_linear_2847_10905)"/>
<path d="M28.6449 17.5934V27.5652H21.4678V48.1438H6.85954V27.5652H0V17.5934H6.85954V13.0204C6.85954 7.98162 8.63794 4.55185 12.1947 2.73111C15.7515 0.910371 19.7529 0 24.1989 0C25.7656 0 27.1629 0.0846866 28.3909 0.254058V11.8772C26.2737 11.8772 24.7494 12.0042 23.8178 12.2582C22.8863 12.5123 22.2512 13.0204 21.9124 13.7826C21.616 14.5024 21.4678 15.688 21.4678 17.3394V17.5934H28.6449Z" fill="url(#paint9_linear_2847_10905)"/>
<defs>
<linearGradient id="paint0_linear_2847_10905" x1="112.359" y1="-13.2069" x2="112.359" y2="74.6337" gradientUnits="userSpaceOnUse">
<stop stop-color="#C48BF1"/>
<stop offset="1" stop-color="#A266D0"/>
</linearGradient>
<linearGradient id="paint1_linear_2847_10905" x1="112.358" y1="-13.2054" x2="112.358" y2="74.6353" gradientUnits="userSpaceOnUse">
<stop stop-color="#C48BF1"/>
<stop offset="1" stop-color="#A266D0"/>
</linearGradient>
<linearGradient id="paint2_linear_2847_10905" x1="112.359" y1="-13.2061" x2="112.359" y2="74.6345" gradientUnits="userSpaceOnUse">
<stop stop-color="#C48BF1"/>
<stop offset="1" stop-color="#A266D0"/>
</linearGradient>
<linearGradient id="paint3_linear_2847_10905" x1="112.358" y1="-13.2069" x2="112.358" y2="74.6338" gradientUnits="userSpaceOnUse">
<stop stop-color="#C48BF1"/>
<stop offset="1" stop-color="#A266D0"/>
</linearGradient>
<linearGradient id="paint4_linear_2847_10905" x1="112.359" y1="-13.2057" x2="112.359" y2="74.635" gradientUnits="userSpaceOnUse">
<stop stop-color="#C48BF1"/>
<stop offset="1" stop-color="#A266D0"/>
</linearGradient>
<linearGradient id="paint5_linear_2847_10905" x1="112.359" y1="-13.2069" x2="112.359" y2="74.6337" gradientUnits="userSpaceOnUse">
<stop stop-color="#C48BF1"/>
<stop offset="1" stop-color="#A266D0"/>
</linearGradient>
<linearGradient id="paint6_linear_2847_10905" x1="112.358" y1="-13.2054" x2="112.358" y2="74.6353" gradientUnits="userSpaceOnUse">
<stop stop-color="#C48BF1"/>
<stop offset="1" stop-color="#A266D0"/>
</linearGradient>
<linearGradient id="paint7_linear_2847_10905" x1="112.359" y1="-13.2061" x2="112.359" y2="74.6345" gradientUnits="userSpaceOnUse">
<stop stop-color="#C48BF1"/>
<stop offset="1" stop-color="#A266D0"/>
</linearGradient>
<linearGradient id="paint8_linear_2847_10905" x1="112.358" y1="-13.2069" x2="112.358" y2="74.6338" gradientUnits="userSpaceOnUse">
<stop stop-color="#C48BF1"/>
<stop offset="1" stop-color="#A266D0"/>
</linearGradient>
<linearGradient id="paint9_linear_2847_10905" x1="112.359" y1="-13.2057" x2="112.359" y2="74.635" gradientUnits="userSpaceOnUse">
<stop stop-color="#C48BF1"/>
<stop offset="1" stop-color="#A266D0"/>
</linearGradient>
</defs>
</svg>
